<svg xmlns="http://www.w3.org/2000/svg" viewBox="0 0 1280 460" role="img" aria-labelledby="title desc">
  <title id="title">Awesome Egocentric Atlas reader route</title>
  <desc id="desc">A five-step reader route for using Awesome Egocentric Atlas: choose a goal, pick a lane, check access, filter the catalog, then cite, build, or contribute.</desc>
  <defs>
    <linearGradient id="bg" x1="0" x2="1" y1="0" y2="1">
      <stop offset="0" stop-color="#fbfdff"/>
      <stop offset="0.55" stop-color="#f4faf9"/>
      <stop offset="1" stop-color="#fff8eb"/>
    </linearGradient>
    <pattern id="dots" width="32" height="32" patternUnits="userSpaceOnUse">
      <circle cx="2" cy="2" r="1.6" fill="#cfe0e4" opacity="0.4"/>
    </pattern>
    <filter id="shadow" x="-10%" y="-12%" width="120%" height="140%">
      <feDropShadow dx="0" dy="8" stdDeviation="9" flood-color="#102a33" flood-opacity="0.10"/>
    </filter>
    <marker id="arrow" viewBox="0 0 10 10" refX="8.5" refY="5" markerWidth="8" markerHeight="8" orient="auto-start-reverse">
      <path d="M0 0 L10 5 L0 10 z" fill="#9bb0b8"/>
    </marker>
    <style>
      .ink { fill: #14212b; }
      .kicker { font: 700 15.3px system-ui, -apple-system, "Segoe UI", sans-serif; fill: #0b8f98; letter-spacing: .16em; }
      .title { font: 700 42.5px system-ui, -apple-system, "Segoe UI", sans-serif; }
      .subtitle { font: 500 20.1px system-ui, -apple-system, "Segoe UI", sans-serif; fill: #53606b; }
      .numText { font: 800 21.2px system-ui, -apple-system, "Segoe UI", sans-serif; fill: #ffffff; }
      .label { font: 700 24px system-ui, -apple-system, "Segoe UI", sans-serif; fill: #102a33; }
      .text { font: 500 18px system-ui, -apple-system, "Segoe UI", sans-serif; fill: #4c5965; }
      .arrow { stroke: #9bb0b8; stroke-width: 2.6; fill: none; }
      .rail { stroke: #cdd9de; stroke-width: 2.4; stroke-dasharray: 2 9; stroke-linecap: round; }
      .foot { font: 500 17.7px system-ui, -apple-system, "Segoe UI", sans-serif; fill: #6a7882; }
    </style>
  </defs>

  <rect width="1280" height="460" fill="url(#bg)"/>
  <rect width="1280" height="460" fill="url(#dots)"/>

  <text class="kicker" x="51" y="60">README FLOW</text>
  <text class="title ink" x="51" y="104">How to enter the atlas</text>
  <text class="subtitle" x="51" y="136">Move from intent to resources without reading every table first.</text>

  <line class="rail" x1="90" y1="290" x2="1230" y2="290"/>

  <!-- 1 -->
  <g transform="translate(51 200)">
    <rect x="0" y="0" width="210" height="180" rx="22" fill="#e8f7f7" stroke="#8ed1d3" stroke-width="1.6" filter="url(#shadow)"/>
    <circle cx="42" cy="46" r="22" fill="#0b8f98"/>
    <text class="numText" x="42" y="53" text-anchor="middle">1</text>
    <text class="label" x="28" y="108">Choose goal</text>
    <text class="text" x="28" y="138">assistant, robot,</text>
    <text class="text" x="28" y="162">benchmark, or 3D</text>
  </g>
  <line class="arrow" x1="271" y1="290" x2="283" y2="290" marker-end="url(#arrow)"/>

  <!-- 2 -->
  <g transform="translate(293 200)">
    <rect x="0" y="0" width="210" height="180" rx="22" fill="#ffffff" stroke="#d8e3e7" stroke-width="1.6" filter="url(#shadow)"/>
    <circle cx="42" cy="46" r="22" fill="#5b6b73"/>
    <text class="numText" x="42" y="53" text-anchor="middle">2</text>
    <text class="label" x="28" y="108">Pick lane</text>
    <text class="text" x="28" y="138">foundation, action,</text>
    <text class="text" x="28" y="162">memory, VLA, AR</text>
  </g>
  <line class="arrow" x1="513" y1="290" x2="525" y2="290" marker-end="url(#arrow)"/>

  <!-- 3 -->
  <g transform="translate(535 200)">
    <rect x="0" y="0" width="210" height="180" rx="22" fill="#fff4d9" stroke="#f0c66f" stroke-width="1.6" filter="url(#shadow)"/>
    <circle cx="42" cy="46" r="22" fill="#ef9f24"/>
    <text class="numText" x="42" y="53" text-anchor="middle">3</text>
    <text class="label" x="28" y="108">Check access</text>
    <text class="text" x="28" y="138">open, request,</text>
    <text class="text" x="28" y="162">partial, or watch</text>
  </g>
  <line class="arrow" x1="755" y1="290" x2="767" y2="290" marker-end="url(#arrow)"/>

  <!-- 4 -->
  <g transform="translate(777 200)">
    <rect x="0" y="0" width="210" height="180" rx="22" fill="#ffffff" stroke="#d8e3e7" stroke-width="1.6" filter="url(#shadow)"/>
    <circle cx="42" cy="46" r="22" fill="#5b6b73"/>
    <text class="numText" x="42" y="53" text-anchor="middle">4</text>
    <text class="label" x="28" y="108">Filter catalog</text>
    <text class="text" x="28" y="138">use YAML tasks,</text>
    <text class="text" x="28" y="162">modalities, years</text>
  </g>
  <line class="arrow" x1="997" y1="290" x2="1009" y2="290" marker-end="url(#arrow)"/>

  <!-- 5 -->
  <g transform="translate(1019 200)">
    <rect x="0" y="0" width="210" height="180" rx="22" fill="#e8f7f7" stroke="#8ed1d3" stroke-width="1.6" filter="url(#shadow)"/>
    <circle cx="42" cy="46" r="22" fill="#0b8f98"/>
    <text class="numText" x="42" y="53" text-anchor="middle">5</text>
    <text class="label" x="28" y="108">Use it</text>
    <text class="text" x="28" y="138">cite, build,</text>
    <text class="text" x="28" y="162">or contribute</text>
  </g>

  <text class="foot" x="51" y="430">Each step maps to a README section; the YAML catalog backs steps 2&#8211;4 with structured filters.</text>
</svg>
