<svg xmlns="http://www.w3.org/2000/svg" width="1600" height="3605" viewBox="0 0 1600 3605" role="img" aria-labelledby="title desc">
  <title id="title">Representative egocentric AI milestones</title>
  <desc id="desc">A generated milestone poster for Awesome Egocentric Atlas, showing 18 representative field-defining works from 2009-2026, grouped into era bands with uncropped visual panels.</desc>
  <defs>
    <linearGradient id="bg" x1="0" y1="0" x2="1" y2="1">
      <stop offset="0" stop-color="#fbfdff"/>
      <stop offset="0.56" stop-color="#f4faf9"/>
      <stop offset="1" stop-color="#eaf6f5"/>
    </linearGradient>
    <linearGradient id="heroGlow" x1="0" y1="0" x2="1" y2="0">
      <stop offset="0" stop-color="#0b8f98" stop-opacity=".20"/>
      <stop offset=".48" stop-color="#ef9f24" stop-opacity=".16"/>
      <stop offset="1" stop-color="#7a6ff0" stop-opacity=".16"/>
    </linearGradient>
    <pattern id="dots" width="28" height="28" patternUnits="userSpaceOnUse">
      <circle cx="2" cy="2" r="1.35" fill="#cfe0e4" opacity="0.38"/>
    </pattern>
    <filter id="softShadow" x="-12%" y="-12%" width="124%" height="132%">
      <feDropShadow dx="0" dy="10" stdDeviation="12" flood-color="#0f2a33" flood-opacity="0.12"/>
    </filter>
    <style>
      .kicker { font: 800 15px system-ui, -apple-system, "Segoe UI", sans-serif; fill: #0b8f98; letter-spacing: .18em; }
      .title { font: 850 52px system-ui, -apple-system, "Segoe UI", sans-serif; fill: #14212b; letter-spacing: 0; }
      .subtitle { font: 500 18px system-ui, -apple-system, "Segoe UI", sans-serif; fill: #53606b; letter-spacing: 0; }
      .stat-num { font: 900 43px system-ui, -apple-system, "Segoe UI", sans-serif; fill: #0f3b45; letter-spacing: 0; }
      .stat-range { font: 900 34px system-ui, -apple-system, "Segoe UI", sans-serif; fill: #0f3b45; letter-spacing: 0; }
      .stat-label { font: 700 14px system-ui, -apple-system, "Segoe UI", sans-serif; fill: #61717b; letter-spacing: .08em; }
      .hero-card { fill: #ffffff; fill-opacity: .70; stroke: #c9dde2; stroke-width: 1.2; }
      .era-bg { fill: #ffffff; fill-opacity: .92; stroke: #c9dde2; stroke-width: 1.25; filter: url(#softShadow); }
      .era-rail { stroke: #c8dde2; stroke-width: 1.35; stroke-dasharray: 6 8; }
      .era-dot { stroke: #ffffff; stroke-width: 4; filter: url(#softShadow); }
      .era-kicker { font: 850 12px system-ui, -apple-system, "Segoe UI", sans-serif; fill: #0b8f98; letter-spacing: .16em; }
      .era-range { font: 900 27px system-ui, -apple-system, "Segoe UI", sans-serif; fill: #122733; letter-spacing: 0; }
      .era-label { font: 850 18px system-ui, -apple-system, "Segoe UI", sans-serif; fill: #263642; letter-spacing: 0; }
      .era-copy { font: 560 12.2px system-ui, -apple-system, "Segoe UI", sans-serif; fill: #62727c; letter-spacing: 0; }
      .spine { fill: none; stroke: #0b8f98; stroke-width: 4; stroke-linecap: round; stroke-linejoin: round; opacity: .34; }
      .card-bg { fill: #ffffff; fill-opacity: .97; stroke: #cfe0e4; stroke-width: 1.1; }
      .milestone-card:hover .card-bg { stroke: #0b8f98; }
      .image-frame { fill: #eef6f5; stroke: #d7e5e8; stroke-width: 1; }
      .date-pill { fill: #0b8f98; }
      .kind-pill { fill: #ef9f24; }
      .pill-text { font: 800 10.8px system-ui, -apple-system, "Segoe UI", sans-serif; fill: #ffffff; letter-spacing: 0; }
      .card-title { font: 840 18px system-ui, -apple-system, "Segoe UI", sans-serif; fill: #182733; letter-spacing: 0; }
      .card-origin { font: 780 12.2px system-ui, -apple-system, "Segoe UI", sans-serif; fill: #0b8f98; letter-spacing: .01em; }
      .card-note { font: 560 12.4px system-ui, -apple-system, "Segoe UI", sans-serif; fill: #5d6c76; letter-spacing: 0; }
      .rule { stroke: #c8dde2; stroke-width: 1.4; }
    </style>
  </defs>

  <rect width="1600" height="3605" fill="url(#bg)"/>
  <rect width="1600" height="3605" fill="url(#dots)"/>
  <rect class="hero-card" x="52" y="24" width="1496" height="138" rx="24"/>
  <rect x="52" y="24" width="1496" height="138" rx="24" fill="url(#heroGlow)"/>
  <line class="rule" x1="52" y1="150" x2="1548" y2="150"/>

  <text class="kicker" x="52" y="48">CURATED FIELD MILESTONES</text>
  <text class="title" x="52" y="104">Egocentric AI timeline</text>
  <text class="subtitle" x="52" y="138">Representative works grouped by the shifts they created: egocentric data, scale, reasoning, robotics, and world models.</text>

  <text class="stat-range" x="1300" y="82" text-anchor="middle">2009-2026</text>
  <text class="stat-label" x="1300" y="106" text-anchor="middle">SPAN</text>
  <text class="stat-num" x="1496" y="82" text-anchor="middle">18</text>
  <text class="stat-label" x="1496" y="106" text-anchor="middle">WORKS</text>

  <path class="spine" d="M 312 242 L 312 829 L 312 1416 L 312 2470 L 312 3062"/>
<g class="era-band" transform="translate(52 188)">
  <rect class="era-bg" width="1496" height="561" rx="22"/>
  <circle class="era-dot" cx="260" cy="54" r="14" fill="#0b8f98"/>
  <path class="era-rail" d="M 278 54 H 1462"/>
  <text class="era-kicker" x="30" y="36">ERA 1</text>
  <text class="era-range" x="30" y="76">2009-2015</text>
  <text class="era-label" x="30" y="111">Origins</text>
  <text class="era-copy" x="30" y="142" text-anchor="start">Egocentric activity, gaze,</text>
<text class="era-copy" x="30" y="159" text-anchor="start">hands, and daily life become</text>
<text class="era-copy" x="30" y="176" text-anchor="start">measurable.</text>
</g>
<a href="http://kitchen.cs.cmu.edu/" target="_blank">
  <g class="milestone-card" transform="translate(330.0 266)">
    <rect class="card-bg" width="291" height="437" rx="14"/>
    <rect class="image-frame" x="12" y="12" width="267" height="175" rx="10"/>
    <image href="milestones/cmu-mmac.png" x="12" y="12" width="267" height="175" preserveAspectRatio="xMidYMid meet"/>
    <rect class="date-pill" x="12" y="207" width="73" height="27" rx="13.5"/>
    <text class="pill-text" x="48.5" y="225" text-anchor="middle">2009-06</text>
    <rect class="kind-pill" x="94" y="207" width="72" height="27" rx="13.5" fill="#0b8f98"/>
    <text class="pill-text" x="130.0" y="225" text-anchor="middle">dataset</text>
    <text class="card-title" x="12" y="259" text-anchor="start">CMU-MMAC</text>
    <text class="card-origin" x="12" y="290" text-anchor="start">Origin: Carnegie Mellon University</text>
    <text class="card-note" x="12" y="314" text-anchor="start">The earliest egocentric dataset; launched</text>
<text class="card-note" x="12" y="331" text-anchor="start">egocentric activity recognition at the</text>
<text class="card-note" x="12" y="348" text-anchor="start">first IEEE Workshop on Egocentric Vision</text>
<text class="card-note" x="12" y="365" text-anchor="start">(CVPR 2009).</text>
  </g>
</a>

<a href="https://cbs.ic.gatech.edu/fpv/" target="_blank">
  <g class="milestone-card" transform="translate(639.0 266)">
    <rect class="card-bg" width="291" height="437" rx="14"/>
    <rect class="image-frame" x="12" y="12" width="267" height="175" rx="10"/>
    <image href="milestones/gtea-gaze.png" x="12" y="12" width="267" height="175" preserveAspectRatio="xMidYMid meet"/>
    <rect class="date-pill" x="12" y="207" width="73" height="27" rx="13.5"/>
    <text class="pill-text" x="48.5" y="225" text-anchor="middle">2011-06</text>
    <rect class="kind-pill" x="94" y="207" width="72" height="27" rx="13.5" fill="#0b8f98"/>
    <text class="pill-text" x="130.0" y="225" text-anchor="middle">dataset</text>
    <text class="card-title" x="12" y="259" text-anchor="start">GTEA / GTEA Gaze / EGTEA Gaze+</text>
    <text class="card-origin" x="12" y="290" text-anchor="start">Origin: Georgia Tech</text>
    <text class="card-note" x="12" y="314" text-anchor="start">Foundational hand-object and gaze</text>
<text class="card-note" x="12" y="331" text-anchor="start">egocentric activity datasets (GTEA, CVPR</text>
<text class="card-note" x="12" y="348" text-anchor="start">2011) that seeded egocentric action and</text>
<text class="card-note" x="12" y="365" text-anchor="start">attention research.</text>
  </g>
</a>

<a href="https://www.csc.kth.se/cvap/actions/" target="_blank">
  <g class="milestone-card" transform="translate(948.0 266)">
    <rect class="card-bg" width="291" height="437" rx="14"/>
    <rect class="image-frame" x="12" y="12" width="267" height="175" rx="10"/>
    <image href="milestones/adl-dataset.png" x="12" y="12" width="267" height="175" preserveAspectRatio="xMidYMid meet"/>
    <rect class="date-pill" x="12" y="207" width="73" height="27" rx="13.5"/>
    <text class="pill-text" x="48.5" y="225" text-anchor="middle">2012-06</text>
    <rect class="kind-pill" x="94" y="207" width="72" height="27" rx="13.5" fill="#0b8f98"/>
    <text class="pill-text" x="130.0" y="225" text-anchor="middle">dataset</text>
    <text class="card-title" x="12" y="259" text-anchor="start">ADL Dataset</text>
    <text class="card-origin" x="12" y="290" text-anchor="start">Origin: UC Irvine</text>
    <text class="card-note" x="12" y="314" text-anchor="start">Classic unscripted daily-life egocentric</text>
<text class="card-note" x="12" y="331" text-anchor="start">activity corpus with object and hand</text>
<text class="card-note" x="12" y="348" text-anchor="start">annotations; the reference point for</text>
<text class="card-note" x="12" y="365" text-anchor="start">ADL-scale egocentric recognition.</text>
  </g>
</a>

<a href="http://vision.soic.indiana.edu/projects/egohands/" target="_blank">
  <g class="milestone-card" transform="translate(1257.0 266)">
    <rect class="card-bg" width="291" height="437" rx="14"/>
    <rect class="image-frame" x="12" y="12" width="267" height="175" rx="10"/>
    <image href="milestones/egohands.png" x="12" y="12" width="267" height="175" preserveAspectRatio="xMidYMid meet"/>
    <rect class="date-pill" x="12" y="207" width="73" height="27" rx="13.5"/>
    <text class="pill-text" x="48.5" y="225" text-anchor="middle">2015-12</text>
    <rect class="kind-pill" x="94" y="207" width="72" height="27" rx="13.5" fill="#0b8f98"/>
    <text class="pill-text" x="130.0" y="225" text-anchor="middle">dataset</text>
    <text class="card-title" x="12" y="259" text-anchor="start">EgoHands</text>
    <text class="card-origin" x="12" y="290" text-anchor="start">Origin: Indiana University</text>
    <text class="card-note" x="12" y="314" text-anchor="start">The Google Glass hand-segmentation</text>
<text class="card-note" x="12" y="331" text-anchor="start">benchmark that made hands a first-class</text>
<text class="card-note" x="12" y="348" text-anchor="start">signal for egocentric perception.</text>
  </g>
</a>


<g class="era-band" transform="translate(52 775)">
  <rect class="era-bg" width="1496" height="561" rx="22"/>
  <circle class="era-dot" cx="260" cy="54" r="14" fill="#0f5d68"/>
  <path class="era-rail" d="M 278 54 H 1462"/>
  <text class="era-kicker" x="30" y="36">ERA 2</text>
  <text class="era-range" x="30" y="76">2020-2022</text>
  <text class="era-label" x="30" y="111">Modern Scale</text>
  <text class="era-copy" x="30" y="142" text-anchor="start">Large benchmarks,</text>
<text class="era-copy" x="30" y="159" text-anchor="start">smart-glasses sensing,</text>
<text class="era-copy" x="30" y="176" text-anchor="start">geometry, and video-language</text>
</g>
<a href="https://epic-kitchens.github.io/" target="_blank">
  <g class="milestone-card" transform="translate(330.0 853)">
    <rect class="card-bg" width="291" height="437" rx="14"/>
    <rect class="image-frame" x="12" y="12" width="267" height="175" rx="10"/>
    <image href="milestones/epic-kitchens-100.png" x="12" y="12" width="267" height="175" preserveAspectRatio="xMidYMid meet"/>
    <rect class="date-pill" x="12" y="207" width="73" height="27" rx="13.5"/>
    <text class="pill-text" x="48.5" y="225" text-anchor="middle">2020-06</text>
    <rect class="kind-pill" x="94" y="207" width="72" height="27" rx="13.5" fill="#0b8f98"/>
    <text class="pill-text" x="130.0" y="225" text-anchor="middle">dataset</text>
    <text class="card-title" x="12" y="259" text-anchor="start">EPIC-KITCHENS-100</text>
    <text class="card-origin" x="12" y="290" text-anchor="start">Origin: Univ. Bristol / Univ. Catania</text>
    <text class="card-note" x="12" y="314" text-anchor="start">The defining large-scale egocentric</text>
<text class="card-note" x="12" y="331" text-anchor="start">action-recognition benchmark and annual</text>
<text class="card-note" x="12" y="348" text-anchor="start">challenge suite.</text>
  </g>
</a>

<a href="https://ego4d-data.org/" target="_blank">
  <g class="milestone-card" transform="translate(639.0 853)">
    <rect class="card-bg" width="291" height="437" rx="14"/>
    <rect class="image-frame" x="12" y="12" width="267" height="175" rx="10"/>
    <image href="milestones/ego4d.png" x="12" y="12" width="267" height="175" preserveAspectRatio="xMidYMid meet"/>
    <rect class="date-pill" x="12" y="207" width="73" height="27" rx="13.5"/>
    <text class="pill-text" x="48.5" y="225" text-anchor="middle">2021-10</text>
    <rect class="kind-pill" x="94" y="207" width="72" height="27" rx="13.5" fill="#0b8f98"/>
    <text class="pill-text" x="130.0" y="225" text-anchor="middle">dataset</text>
    <text class="card-title" x="12" y="259" text-anchor="start">Ego4D</text>
    <text class="card-origin" x="12" y="290" text-anchor="start">Origin: Meta AI / Ego4D consortium</text>
    <text class="card-note" x="12" y="314" text-anchor="start">The 3,670-hour massive-scale benchmark</text>
<text class="card-note" x="12" y="331" text-anchor="start">suite that catalyzed the modern egocentric</text>
<text class="card-note" x="12" y="348" text-anchor="start">era.</text>
  </g>
</a>

<a href="https://hoi4d.github.io/" target="_blank">
  <g class="milestone-card" transform="translate(948.0 853)">
    <rect class="card-bg" width="291" height="437" rx="14"/>
    <rect class="image-frame" x="12" y="12" width="267" height="175" rx="10"/>
    <image href="milestones/hoi4d.png" x="12" y="12" width="267" height="175" preserveAspectRatio="xMidYMid meet"/>
    <rect class="date-pill" x="12" y="207" width="73" height="27" rx="13.5"/>
    <text class="pill-text" x="48.5" y="225" text-anchor="middle">2022-03</text>
    <rect class="kind-pill" x="94" y="207" width="72" height="27" rx="13.5" fill="#0b8f98"/>
    <text class="pill-text" x="130.0" y="225" text-anchor="middle">dataset</text>
    <text class="card-title" x="12" y="259" text-anchor="start">HOI4D</text>
    <text class="card-origin" x="12" y="290" text-anchor="start">Origin: Tsinghua / Peking / Qi Zhi</text>
    <text class="card-note" x="12" y="314" text-anchor="start">Large RGB-D 4D hand-object interaction</text>
<text class="card-note" x="12" y="331" text-anchor="start">dataset that moved egocentric HOI toward</text>
<text class="card-note" x="12" y="348" text-anchor="start">geometry, pose, and temporal scene</text>
<text class="card-note" x="12" y="365" text-anchor="start">understanding.</text>
  </g>
</a>

<a href="https://github.com/showlab/EgoVLP" target="_blank">
  <g class="milestone-card" transform="translate(1257.0 853)">
    <rect class="card-bg" width="291" height="437" rx="14"/>
    <rect class="image-frame" x="12" y="12" width="267" height="175" rx="10"/>
    <image href="milestones/egovlp.png" x="12" y="12" width="267" height="175" preserveAspectRatio="xMidYMid meet"/>
    <rect class="date-pill" x="12" y="207" width="73" height="27" rx="13.5"/>
    <text class="pill-text" x="48.5" y="225" text-anchor="middle">2022-06</text>
    <rect class="kind-pill" x="94" y="207" width="59" height="27" rx="13.5" fill="#ef9f24"/>
    <text class="pill-text" x="123.5" y="225" text-anchor="middle">model</text>
    <text class="card-title" x="12" y="259" text-anchor="start">EgoVLP</text>
    <text class="card-origin" x="12" y="290" text-anchor="start">Origin: ShowLab</text>
    <text class="card-note" x="12" y="314" text-anchor="start">First egocentric video-language</text>
<text class="card-note" x="12" y="331" text-anchor="start">pretraining (EgoClip, EgoNCE) and a basis</text>
<text class="card-note" x="12" y="348" text-anchor="start">for ego representation learning.</text>
  </g>
</a>


<g class="era-band" transform="translate(52 1362)">
  <rect class="era-bg" width="1496" height="1028" rx="22"/>
  <circle class="era-dot" cx="260" cy="54" r="14" fill="#34424d"/>
  <path class="era-rail" d="M 278 54 H 1462"/>
  <text class="era-kicker" x="30" y="36">ERA 3</text>
  <text class="era-range" x="30" y="76">2023-2024</text>
  <text class="era-label" x="30" y="111">Reasoning &amp; Robotics</text>
  <text class="era-copy" x="30" y="142" text-anchor="start">Long-form reasoning, ego-exo</text>
<text class="era-copy" x="30" y="159" text-anchor="start">capture, AR hand-object</text>
<text class="era-copy" x="30" y="176" text-anchor="start">tracking, and robot...</text>
</g>
<a href="http://egoschema.github.io/" target="_blank">
  <g class="milestone-card" transform="translate(471.0 1440)">
    <rect class="card-bg" width="300" height="442" rx="14"/>
    <rect class="image-frame" x="12" y="12" width="276" height="180" rx="10"/>
    <image href="milestones/egoschema.png" x="12" y="12" width="276" height="180" preserveAspectRatio="xMidYMid meet"/>
    <rect class="date-pill" x="12" y="212" width="73" height="27" rx="13.5"/>
    <text class="pill-text" x="48.5" y="230" text-anchor="middle">2023-08</text>
    <rect class="kind-pill" x="94" y="212" width="86" height="27" rx="13.5" fill="#5b6b73"/>
    <text class="pill-text" x="137.0" y="230" text-anchor="middle">benchmark</text>
    <text class="card-title" x="12" y="264" text-anchor="start">EgoSchema</text>
    <text class="card-origin" x="12" y="295" text-anchor="start">Origin: UC Berkeley</text>
    <text class="card-note" x="12" y="319" text-anchor="start">The benchmark that exposed how far models</text>
<text class="card-note" x="12" y="336" text-anchor="start">are from long-form egocentric video</text>
<text class="card-note" x="12" y="353" text-anchor="start">reasoning.</text>
  </g>
</a>

<a href="https://www.projectaria.com/datasets/" target="_blank">
  <g class="milestone-card" transform="translate(789.0 1440)">
    <rect class="card-bg" width="300" height="442" rx="14"/>
    <rect class="image-frame" x="12" y="12" width="276" height="180" rx="10"/>
    <image href="milestones/project-aria.png" x="12" y="12" width="276" height="180" preserveAspectRatio="xMidYMid meet"/>
    <rect class="date-pill" x="12" y="212" width="73" height="27" rx="13.5"/>
    <text class="pill-text" x="48.5" y="230" text-anchor="middle">2023-08</text>
    <rect class="kind-pill" x="94" y="212" width="93" height="27" rx="13.5" fill="#b8c2c9"/>
    <text class="pill-text" x="140.5" y="230" text-anchor="middle">collection</text>
    <text class="card-title" x="12" y="264" text-anchor="start">Project Aria Datasets</text>
    <text class="card-origin" x="12" y="295" text-anchor="start">Origin: Meta Reality Labs</text>
    <text class="card-note" x="12" y="319" text-anchor="start">Meta's research smart-glasses platform</text>
<text class="card-note" x="12" y="336" text-anchor="start">that opened the modern wave of AR and</text>
<text class="card-note" x="12" y="353" text-anchor="start">wearable egocentric data.</text>
  </g>
</a>

<a href="https://ego-exo4d-data.org/" target="_blank">
  <g class="milestone-card" transform="translate(1107.0 1440)">
    <rect class="card-bg" width="300" height="442" rx="14"/>
    <rect class="image-frame" x="12" y="12" width="276" height="180" rx="10"/>
    <image href="milestones/ego-exo4d.png" x="12" y="12" width="276" height="180" preserveAspectRatio="xMidYMid meet"/>
    <rect class="date-pill" x="12" y="212" width="73" height="27" rx="13.5"/>
    <text class="pill-text" x="48.5" y="230" text-anchor="middle">2023-11</text>
    <rect class="kind-pill" x="94" y="212" width="72" height="27" rx="13.5" fill="#0b8f98"/>
    <text class="pill-text" x="130.0" y="230" text-anchor="middle">dataset</text>
    <text class="card-title" x="12" y="264" text-anchor="start">Ego-Exo4D</text>
    <text class="card-origin" x="12" y="295" text-anchor="start">Origin: Meta AI / Ego-Exo4D consortium</text>
    <text class="card-note" x="12" y="319" text-anchor="start">Synchronized ego and exo skilled-activity</text>
<text class="card-note" x="12" y="336" text-anchor="start">capture at scale; the reference for</text>
<text class="card-note" x="12" y="353" text-anchor="start">cross-view egocentric learning.</text>
  </g>
</a>

<a href="https://umi-gripper.github.io/" target="_blank">
  <g class="milestone-card" transform="translate(630.0 1902)">
    <rect class="card-bg" width="300" height="442" rx="14"/>
    <rect class="image-frame" x="12" y="12" width="276" height="180" rx="10"/>
    <image href="milestones/umi.png" x="12" y="12" width="276" height="180" preserveAspectRatio="xMidYMid meet"/>
    <rect class="date-pill" x="12" y="212" width="73" height="27" rx="13.5"/>
    <text class="pill-text" x="48.5" y="230" text-anchor="middle">2024-02</text>
    <rect class="kind-pill" x="94" y="212" width="72" height="27" rx="13.5" fill="#7a6ff0"/>
    <text class="pill-text" x="130.0" y="230" text-anchor="middle">toolkit</text>
    <text class="card-title" x="12" y="264" text-anchor="start">Universal Manipulation Interface /</text>
<text class="card-title" x="12" y="287" text-anchor="start">UMI</text>
    <text class="card-origin" x="12" y="318" text-anchor="start">Origin: Stanford</text>
    <text class="card-note" x="12" y="342" text-anchor="start">Handheld/wrist-view manipulation interface</text>
<text class="card-note" x="12" y="359" text-anchor="start">that made robot-free in-the-wild</text>
<text class="card-note" x="12" y="376" text-anchor="start">demonstrations practical for</text>
<text class="card-note" x="12" y="393" text-anchor="start">cross-embodiment policy learning.</text>
  </g>
</a>

<a href="https://facebookresearch.github.io/hot3d/" target="_blank">
  <g class="milestone-card" transform="translate(948.0 1902)">
    <rect class="card-bg" width="300" height="442" rx="14"/>
    <rect class="image-frame" x="12" y="12" width="276" height="180" rx="10"/>
    <image href="milestones/hot3d.png" x="12" y="12" width="276" height="180" preserveAspectRatio="xMidYMid meet"/>
    <rect class="date-pill" x="12" y="212" width="73" height="27" rx="13.5"/>
    <text class="pill-text" x="48.5" y="230" text-anchor="middle">2024-06</text>
    <rect class="kind-pill" x="94" y="212" width="72" height="27" rx="13.5" fill="#0b8f98"/>
    <text class="pill-text" x="130.0" y="230" text-anchor="middle">dataset</text>
    <text class="card-title" x="12" y="264" text-anchor="start">HOT3D</text>
    <text class="card-origin" x="12" y="295" text-anchor="start">Origin: Meta / Project Aria</text>
    <text class="card-note" x="12" y="319" text-anchor="start">Reference benchmark for 3D hand-object</text>
<text class="card-note" x="12" y="336" text-anchor="start">tracking from AR glasses (Project Aria and</text>
<text class="card-note" x="12" y="353" text-anchor="start">Quest 3).</text>
  </g>
</a>


<g class="era-band" transform="translate(52 2416)">
  <rect class="era-bg" width="1496" height="566" rx="22"/>
  <circle class="era-dot" cx="260" cy="54" r="14" fill="#98620b"/>
  <path class="era-rail" d="M 278 54 H 1462"/>
  <text class="era-kicker" x="30" y="36">ERA 4</text>
  <text class="era-range" x="30" y="76">2025</text>
  <text class="era-label" x="30" y="111">Daily Life to VLA</text>
  <text class="era-copy" x="30" y="142" text-anchor="start">Personal memory and egocentric</text>
<text class="era-copy" x="30" y="159" text-anchor="start">demonstrations begin feeding</text>
<text class="era-copy" x="30" y="176" text-anchor="start">robot policies.</text>
</g>
<a href="https://arxiv.org/abs/2503.03803" target="_blank">
  <g class="milestone-card" transform="translate(630.0 2494)">
    <rect class="card-bg" width="300" height="442" rx="14"/>
    <rect class="image-frame" x="12" y="12" width="276" height="180" rx="10"/>
    <image href="milestones/egolife.png" x="12" y="12" width="276" height="180" preserveAspectRatio="xMidYMid meet"/>
    <rect class="date-pill" x="12" y="212" width="73" height="27" rx="13.5"/>
    <text class="pill-text" x="48.5" y="230" text-anchor="middle">2025-03</text>
    <rect class="kind-pill" x="94" y="212" width="72" height="27" rx="13.5" fill="#0b8f98"/>
    <text class="pill-text" x="130.0" y="230" text-anchor="middle">dataset</text>
    <text class="card-title" x="12" y="264" text-anchor="start">EgoLife</text>
    <text class="card-origin" x="12" y="295" text-anchor="start">Origin: S-Lab, NTU / LMMs-Lab</text>
    <text class="card-note" x="12" y="319" text-anchor="start">Week-long Meta Aria daily-life corpus that</text>
<text class="card-note" x="12" y="336" text-anchor="start">pushed egocentric research toward</text>
<text class="card-note" x="12" y="353" text-anchor="start">personalized memory and life-assistant</text>
<text class="card-note" x="12" y="370" text-anchor="start">reasoning.</text>
  </g>
</a>

<a href="https://rchalyang.github.io/EgoVLA/" target="_blank">
  <g class="milestone-card" transform="translate(948.0 2494)">
    <rect class="card-bg" width="300" height="442" rx="14"/>
    <rect class="image-frame" x="12" y="12" width="276" height="180" rx="10"/>
    <image href="milestones/egovla.png" x="12" y="12" width="276" height="180" preserveAspectRatio="xMidYMid meet"/>
    <rect class="date-pill" x="12" y="212" width="73" height="27" rx="13.5"/>
    <text class="pill-text" x="48.5" y="230" text-anchor="middle">2025-07</text>
    <rect class="kind-pill" x="94" y="212" width="59" height="27" rx="13.5" fill="#ef9f24"/>
    <text class="pill-text" x="123.5" y="230" text-anchor="middle">model</text>
    <text class="card-title" x="12" y="264" text-anchor="start">EgoVLA</text>
    <text class="card-origin" x="12" y="295" text-anchor="start">Origin: UCSD / UIUC / MIT / NVIDIA</text>
    <text class="card-note" x="12" y="319" text-anchor="start">Showed vision-language-action policies can</text>
<text class="card-note" x="12" y="336" text-anchor="start">be learned from egocentric human video and</text>
<text class="card-note" x="12" y="353" text-anchor="start">transferred to robots.</text>
  </g>
</a>


<g class="era-band" transform="translate(52 3008)">
  <rect class="era-bg" width="1496" height="566" rx="22"/>
  <circle class="era-dot" cx="260" cy="54" r="14" fill="#5d52cf"/>
  <path class="era-rail" d="M 278 54 H 1462"/>
  <text class="era-kicker" x="30" y="36">ERA 5</text>
  <text class="era-range" x="30" y="76">2026</text>
  <text class="era-label" x="30" y="111">World-Model Frontier</text>
  <text class="era-copy" x="30" y="142" text-anchor="start">Egocentric corpora, world</text>
<text class="era-copy" x="30" y="159" text-anchor="start">models, and data-scaling laws</text>
<text class="era-copy" x="30" y="176" text-anchor="start">push embodied AI outward.</text>
</g>
<a href="https://github.com/NVIDIA/DreamDojo" target="_blank">
  <g class="milestone-card" transform="translate(471.0 3086)">
    <rect class="card-bg" width="300" height="442" rx="14"/>
    <rect class="image-frame" x="12" y="12" width="276" height="180" rx="10"/>
    <image href="milestones/dreamdojo.png" x="12" y="12" width="276" height="180" preserveAspectRatio="xMidYMid meet"/>
    <rect class="date-pill" x="12" y="212" width="73" height="27" rx="13.5"/>
    <text class="pill-text" x="48.5" y="230" text-anchor="middle">2026-02</text>
    <rect class="kind-pill" x="94" y="212" width="59" height="27" rx="13.5" fill="#ef9f24"/>
    <text class="pill-text" x="123.5" y="230" text-anchor="middle">model</text>
    <text class="card-title" x="12" y="264" text-anchor="start">DreamDojo</text>
    <text class="card-origin" x="12" y="295" text-anchor="start">Origin: NVIDIA</text>
    <text class="card-note" x="12" y="319" text-anchor="start">44K-hour egocentric-video robot world</text>
<text class="card-note" x="12" y="336" text-anchor="start">model with latent actions for real-time</text>
<text class="card-note" x="12" y="353" text-anchor="start">planning.</text>
  </g>
</a>

<a href="https://arxiv.org/abs/2602.16710" target="_blank">
  <g class="milestone-card" transform="translate(789.0 3086)">
    <rect class="card-bg" width="300" height="442" rx="14"/>
    <rect class="image-frame" x="12" y="12" width="276" height="180" rx="10"/>
    <image href="milestones/egoscale.png" x="12" y="12" width="276" height="180" preserveAspectRatio="xMidYMid meet"/>
    <rect class="date-pill" x="12" y="212" width="73" height="27" rx="13.5"/>
    <text class="pill-text" x="48.5" y="230" text-anchor="middle">2026-02</text>
    <rect class="kind-pill" x="94" y="212" width="72" height="27" rx="13.5" fill="#0b8f98"/>
    <text class="pill-text" x="130.0" y="230" text-anchor="middle">dataset</text>
    <text class="card-title" x="12" y="264" text-anchor="start">EgoScale</text>
    <text class="card-origin" x="12" y="295" text-anchor="start">Origin: NVIDIA / UC Berkeley / UMD</text>
    <text class="card-note" x="12" y="319" text-anchor="start">Revealed the log-linear data-scaling law</text>
<text class="card-note" x="12" y="336" text-anchor="start">for egocentric human-video VLA</text>
<text class="card-note" x="12" y="353" text-anchor="start">pretraining.</text>
  </g>
</a>

<a href="https://huggingface.co/datasets/ropedia-ai/xperience-10m" target="_blank">
  <g class="milestone-card" transform="translate(1107.0 3086)">
    <rect class="card-bg" width="300" height="442" rx="14"/>
    <rect class="image-frame" x="12" y="12" width="276" height="180" rx="10"/>
    <image href="milestones/xperience-10m.png" x="12" y="12" width="276" height="180" preserveAspectRatio="xMidYMid meet"/>
    <rect class="date-pill" x="12" y="212" width="73" height="27" rx="13.5"/>
    <text class="pill-text" x="48.5" y="230" text-anchor="middle">2026-03</text>
    <rect class="kind-pill" x="94" y="212" width="72" height="27" rx="13.5" fill="#0b8f98"/>
    <text class="pill-text" x="130.0" y="230" text-anchor="middle">dataset</text>
    <text class="card-title" x="12" y="264" text-anchor="start">Xperience-10M</text>
    <text class="card-origin" x="12" y="295" text-anchor="start">Origin: Ropedia</text>
    <text class="card-note" x="12" y="319" text-anchor="start">Petascale egocentric world-model corpus</text>
<text class="card-note" x="12" y="336" text-anchor="start">(10M experiences, ~1 PB) pushing</text>
<text class="card-note" x="12" y="353" text-anchor="start">egocentric data to internet scale for</text>
<text class="card-note" x="12" y="370" text-anchor="start">embodied AI and robot learning.</text>
  </g>
</a>


</svg>
