<svg xmlns="http://www.w3.org/2000/svg" viewBox="0 0 1200 340" role="img" aria-labelledby="title desc">
  <title id="title">Awesome Egocentric Atlas reader route</title>
  <desc id="desc">A five-step reader route for using Awesome Egocentric Atlas: choose a goal, pick a lane, check access, filter the catalog, then cite, build, or contribute.</desc>
  <defs>
    <linearGradient id="bg" x1="0" x2="1" y1="0" y2="1">
      <stop offset="0" stop-color="#fbfdff"/>
      <stop offset="0.55" stop-color="#f4faf9"/>
      <stop offset="1" stop-color="#fff8eb"/>
    </linearGradient>
    <pattern id="dots" width="28" height="28" patternUnits="userSpaceOnUse">
      <circle cx="2" cy="2" r="1.4" fill="#cfe0e4" opacity="0.4"/>
    </pattern>
    <filter id="shadow" x="-10%" y="-12%" width="120%" height="140%">
      <feDropShadow dx="0" dy="6" stdDeviation="7" flood-color="#102a33" flood-opacity="0.10"/>
    </filter>
    <marker id="arrow" viewBox="0 0 10 10" refX="8.5" refY="5" markerWidth="7" markerHeight="7" orient="auto-start-reverse">
      <path d="M0 0 L10 5 L0 10 z" fill="#9bb0b8"/>
    </marker>
    <style>
      .ink { fill: #14212b; }
      .kicker { font: 700 11.5px system-ui, -apple-system, "Segoe UI", sans-serif; fill: #0b8f98; letter-spacing: .14em; }
      .title { font: 700 28px system-ui, -apple-system, "Segoe UI", sans-serif; }
      .subtitle { font: 500 14px system-ui, -apple-system, "Segoe UI", sans-serif; fill: #53606b; }
      .numText { font: 800 13px system-ui, -apple-system, "Segoe UI", sans-serif; fill: #ffffff; }
      .label { font: 700 16.5px system-ui, -apple-system, "Segoe UI", sans-serif; fill: #102a33; }
      .text { font: 500 12.5px system-ui, -apple-system, "Segoe UI", sans-serif; fill: #4c5965; }
      .arrow { stroke: #9bb0b8; stroke-width: 2.2; fill: none; }
      .rail { stroke: #cdd9de; stroke-width: 2; stroke-dasharray: 2 8; stroke-linecap: round; }
      .foot { font: 500 12.5px system-ui, -apple-system, "Segoe UI", sans-serif; fill: #6a7882; }
    </style>
  </defs>

  <rect width="1200" height="340" fill="url(#bg)"/>
  <rect width="1200" height="340" fill="url(#dots)"/>

  <text class="kicker" x="60" y="46">README FLOW</text>
  <text class="title ink" x="60" y="78">How to enter the atlas</text>
  <text class="subtitle" x="60" y="104">Move from intent to resources without reading every table first.</text>

  <line class="rail" x1="100" y1="215" x2="1100" y2="215"/>

  <!-- 1 -->
  <g transform="translate(60 150)">
    <rect x="0" y="0" width="196" height="130" rx="18" fill="#e8f7f7" stroke="#8ed1d3" stroke-width="1.4" filter="url(#shadow)"/>
    <circle cx="32" cy="34" r="16" fill="#0b8f98"/>
    <text class="numText" x="32" y="39" text-anchor="middle">1</text>
    <text class="label" x="22" y="80">Choose goal</text>
    <text class="text" x="22" y="103">assistant, robot,</text>
    <text class="text" x="22" y="121">benchmark, or 3D</text>
  </g>
  <line class="arrow" x1="262" y1="215" x2="287" y2="215" marker-end="url(#arrow)"/>

  <!-- 2 -->
  <g transform="translate(281 150)">
    <rect x="0" y="0" width="196" height="130" rx="18" fill="#ffffff" stroke="#d8e3e7" stroke-width="1.4" filter="url(#shadow)"/>
    <circle cx="32" cy="34" r="16" fill="#5b6b73"/>
    <text class="numText" x="32" y="39" text-anchor="middle">2</text>
    <text class="label" x="22" y="80">Pick lane</text>
    <text class="text" x="22" y="103">foundation, action,</text>
    <text class="text" x="22" y="121">memory, VLA, AR</text>
  </g>
  <line class="arrow" x1="483" y1="215" x2="508" y2="215" marker-end="url(#arrow)"/>

  <!-- 3 -->
  <g transform="translate(502 150)">
    <rect x="0" y="0" width="196" height="130" rx="18" fill="#fff4d9" stroke="#f0c66f" stroke-width="1.4" filter="url(#shadow)"/>
    <circle cx="32" cy="34" r="16" fill="#ef9f24"/>
    <text class="numText" x="32" y="39" text-anchor="middle">3</text>
    <text class="label" x="22" y="80">Check access</text>
    <text class="text" x="22" y="103">open, request,</text>
    <text class="text" x="22" y="121">partial, or watch</text>
  </g>
  <line class="arrow" x1="704" y1="215" x2="729" y2="215" marker-end="url(#arrow)"/>

  <!-- 4 -->
  <g transform="translate(723 150)">
    <rect x="0" y="0" width="196" height="130" rx="18" fill="#ffffff" stroke="#d8e3e7" stroke-width="1.4" filter="url(#shadow)"/>
    <circle cx="32" cy="34" r="16" fill="#5b6b73"/>
    <text class="numText" x="32" y="39" text-anchor="middle">4</text>
    <text class="label" x="22" y="80">Filter catalog</text>
    <text class="text" x="22" y="103">use YAML tasks,</text>
    <text class="text" x="22" y="121">modalities, years</text>
  </g>
  <line class="arrow" x1="925" y1="215" x2="950" y2="215" marker-end="url(#arrow)"/>

  <!-- 5 -->
  <g transform="translate(944 150)">
    <rect x="0" y="0" width="196" height="130" rx="18" fill="#e8f7f7" stroke="#8ed1d3" stroke-width="1.4" filter="url(#shadow)"/>
    <circle cx="32" cy="34" r="16" fill="#0b8f98"/>
    <text class="numText" x="32" y="39" text-anchor="middle">5</text>
    <text class="label" x="22" y="80">Use it</text>
    <text class="text" x="22" y="103">cite, build,</text>
    <text class="text" x="22" y="121">or contribute</text>
  </g>

  <text class="foot" x="60" y="318">Each step maps to a README section; the YAML catalog backs steps 2–4 with structured filters.</text>
</svg>
