<svg xmlns="http://www.w3.org/2000/svg" viewBox="0 0 1280 740" role="img" aria-labelledby="title desc">
  <title id="title">Egocentric AI task matrix</title>
  <desc id="desc">A six-lane map of egocentric AI research: foundation video, procedure and action, hands and objects in 3D, memory and reasoning, robotics and VLA, and AR wearable sensing, with the comparison axis and canonical anchors for each lane and a legend of access states.</desc>
  <defs>
    <linearGradient id="bg" x1="0" x2="1" y1="0" y2="1">
      <stop offset="0" stop-color="#fbfdff"/>
      <stop offset="1" stop-color="#eef7f6"/>
    </linearGradient>
    <pattern id="dots" width="32" height="32" patternUnits="userSpaceOnUse">
      <circle cx="2" cy="2" r="1.6" fill="#cfe0e4" opacity="0.4"/>
    </pattern>
    <filter id="shadow" x="-8%" y="-10%" width="116%" height="135%">
      <feDropShadow dx="0" dy="8" stdDeviation="9" flood-color="#0f2a33" flood-opacity="0.09"/>
    </filter>
    <style>
      .ink { fill: #14212b; }
      .kicker { font: 700 15.3px system-ui, -apple-system, "Segoe UI", sans-serif; fill: #0b8f98; letter-spacing: .16em; }
      .title { font: 700 40.1px system-ui, -apple-system, "Segoe UI", sans-serif; }
      .subtitle { font: 500 18.9px system-ui, -apple-system, "Segoe UI", sans-serif; fill: #53606b; }
      .label { font: 700 26.0px system-ui, -apple-system, "Segoe UI", sans-serif; fill: #102a33; }
      .compare { font: 500 17.7px system-ui, -apple-system, "Segoe UI", sans-serif; fill: #6a7882; }
      .anchors { font: 600 18.9px system-ui, -apple-system, "Segoe UI", sans-serif; fill: #46525f; }
      .pillText { font: 700 15.3px system-ui, -apple-system, "Segoe UI", sans-serif; fill: #ffffff; letter-spacing: .06em; }
      .legendK { font: 700 15.3px system-ui, -apple-system, "Segoe UI", sans-serif; fill: #5b6b73; letter-spacing: .14em; }
      .legendT { font: 600 17.7px system-ui, -apple-system, "Segoe UI", sans-serif; fill: #46525f; }
    </style>
  </defs>

  <rect width="1280" height="740" fill="url(#bg)"/>
  <rect width="1280" height="740" fill="url(#dots)"/>

  <text class="kicker" x="70" y="60">SIX RESEARCH LANES</text>
  <text class="title ink" x="70" y="102">Egocentric AI Task Matrix</text>
  <text class="subtitle" x="70" y="134">Pick a lane by task, then compare resources by scale, modality, access status, and benchmark maturity.</text>

  <!-- Row 1 -->
  <g transform="translate(70 170)">
    <rect width="360" height="200" rx="18" fill="#e9f7f7" stroke="#8fd2d4" stroke-width="1.6" filter="url(#shadow)"/>
    <rect x="28" y="28" width="64" height="28" rx="14" fill="#0b8f98"/>
    <text class="pillText" x="60" y="46" text-anchor="middle">VIDEO</text>
    <text class="label" x="28" y="100">Foundation Ego Video</text>
    <text class="compare" x="28" y="132">compare · scale, license, modalities</text>
    <text class="anchors" x="28" y="166">Xperience-10M, Ego4D</text>
  </g>

  <g transform="translate(460 170)">
    <rect width="360" height="200" rx="18" fill="#ffffff" stroke="#d5e1e6" stroke-width="1.6" filter="url(#shadow)"/>
    <rect x="28" y="28" width="74" height="28" rx="14" fill="#5b6b73"/>
    <text class="pillText" x="65" y="46" text-anchor="middle">ACTION</text>
    <text class="label" x="28" y="100">Procedure &amp; Anticipation</text>
    <text class="compare" x="28" y="132">compare · granularity, mistakes, gaze</text>
    <text class="anchors" x="28" y="166">EPIC-KITCHENS, Assembly101</text>
  </g>

  <g transform="translate(850 170)">
    <rect width="360" height="200" rx="18" fill="#fff4dc" stroke="#f0c66f" stroke-width="1.6" filter="url(#shadow)"/>
    <rect x="28" y="28" width="46" height="28" rx="14" fill="#ef9f24"/>
    <text class="pillText" x="51" y="46" text-anchor="middle">3D</text>
    <text class="label" x="28" y="100">Hands, Objects &amp; Pose</text>
    <text class="compare" x="28" y="132">compare · contact, pose, meshes, scene</text>
    <text class="anchors" x="28" y="166">HOT3D, HOI4D, H2O</text>
  </g>

  <!-- Row 2 -->
  <g transform="translate(70 400)">
    <rect width="360" height="200" rx="18" fill="#ffffff" stroke="#d5e1e6" stroke-width="1.6" filter="url(#shadow)"/>
    <rect x="28" y="28" width="80" height="28" rx="14" fill="#5b6b73"/>
    <text class="pillText" x="68" y="46" text-anchor="middle">MEMORY</text>
    <text class="label" x="28" y="100">Long-Context Reasoning</text>
    <text class="compare" x="28" y="132">compare · long clips, grounding, QA</text>
    <text class="anchors" x="28" y="166">EgoSchema, EgoLife, Ego-R1</text>
  </g>

  <g transform="translate(460 400)">
    <rect width="360" height="200" rx="18" fill="#e9f7f7" stroke="#8fd2d4" stroke-width="1.6" filter="url(#shadow)"/>
    <rect x="28" y="28" width="66" height="28" rx="14" fill="#0b8f98"/>
    <text class="pillText" x="61" y="46" text-anchor="middle">ROBOT</text>
    <text class="label" x="28" y="100">Robotics &amp; VLA</text>
    <text class="compare" x="28" y="132">compare · transfer, actions, diversity</text>
    <text class="anchors" x="28" y="166">EgoDex, OpenEgo, EgoVLA</text>
  </g>

  <g transform="translate(850 400)">
    <rect width="360" height="200" rx="18" fill="#fff4dc" stroke="#f0c66f" stroke-width="1.6" filter="url(#shadow)"/>
    <rect x="28" y="28" width="76" height="28" rx="14" fill="#ef9f24"/>
    <text class="pillText" x="66" y="46" text-anchor="middle">SENSOR</text>
    <text class="label" x="28" y="100">AR &amp; Wearable Sensing</text>
    <text class="compare" x="28" y="132">compare · gaze, IMU, SLAM, audio</text>
    <text class="anchors" x="28" y="166">Aria, ADT, AEA, Nymeria</text>
  </g>

  <!-- access-state legend -->
  <text class="legendK" x="70" y="668">ACCESS STATES</text>
  <circle cx="232" cy="663" r="6" fill="#00a6b2"/>
  <text class="legendT" x="246" y="668">open</text>
  <circle cx="320" cy="663" r="6" fill="#ef9f24"/>
  <text class="legendT" x="334" y="668">request</text>
  <circle cx="432" cy="663" r="6" fill="#5b6b73"/>
  <text class="legendT" x="446" y="668">benchmark</text>
  <circle cx="580" cy="663" r="6" fill="#9aa7af"/>
  <text class="legendT" x="594" y="668">partial</text>
  <circle cx="684" cy="663" r="6" fill="#c2ccd2"/>
  <text class="legendT" x="698" y="668">watch</text>
  <text class="compare" x="800" y="668">Start with mature lanes; track watch entries.</text>
</svg>
