<svg xmlns="http://www.w3.org/2000/svg" viewBox="0 0 1280 520" role="img" aria-labelledby="title desc">
  <title id="title">Egocentric resources by access state</title>
  <desc id="desc">A proportional bar snapshot of the 713 egocentric resources by public-access state: open, watch, partial, benchmark, and request. Bar lengths are generated from the latest catalog counts.</desc>
  <defs>
    <linearGradient id="bg" x1="0" x2="1" y1="0" y2="1">
      <stop offset="0" stop-color="#fbfdff"/>
      <stop offset="1" stop-color="#eef7f6"/>
    </linearGradient>
    <pattern id="dots" width="32" height="32" patternUnits="userSpaceOnUse">
      <circle cx="2" cy="2" r="1.6" fill="#cfe0e4" opacity="0.4"/>
    </pattern>
    <filter id="shadow" x="-6%" y="-18%" width="112%" height="145%">
      <feDropShadow dx="0" dy="5" stdDeviation="6" flood-color="#0f2a33" flood-opacity="0.10"/>
    </filter>
    <style>
      .ink { fill: #14212b; }
      .kicker { font: 700 15px system-ui, -apple-system, "Segoe UI", sans-serif; fill: #0b8f98; letter-spacing: .16em; }
      .title { font: 700 37px system-ui, -apple-system, "Segoe UI", sans-serif; }
      .subtitle { font: 500 17px system-ui, -apple-system, "Segoe UI", sans-serif; fill: #53606b; }
      .rowlabel { font: 760 18px system-ui, -apple-system, "Segoe UI", sans-serif; fill: #24323c; }
      .value { font: 760 18px system-ui, -apple-system, "Segoe UI", sans-serif; fill: #24323c; }
      .gloss { font: 520 16px system-ui, -apple-system, "Segoe UI", sans-serif; fill: #6a7882; }
      .rail { fill: #e8f1f3; stroke: #c9dde2; stroke-width: 1.1; }
      .fill { filter: url(#shadow); }
      .scale { font: 620 12px system-ui, -apple-system, "Segoe UI", sans-serif; fill: #85939c; }
      .tick { stroke: #c9dde2; stroke-width: 1; }
    </style>
  </defs>

  <rect width="1280" height="520" fill="url(#bg)"/>
  <rect width="1280" height="520" fill="url(#dots)"/>

  <text class="kicker" x="70" y="58">ACCESS STATUS</text>
  <text class="title ink" x="70" y="102">713 egocentric resources by access state</text>
  <text class="subtitle" x="70" y="134">Bar lengths are proportional to live status counts. Labels stay outside the bars so small categories remain readable.</text>

  <line class="tick" x1="300" y1="162" x2="300" y2="174"/>
  <line class="tick" x1="860.0" y1="162" x2="860.0" y2="174"/>
  <text class="scale" x="300" y="156" text-anchor="middle">0</text>
  <text class="scale" x="860.0" y="156" text-anchor="middle">max 521</text>

  <g>
  <text class="rowlabel" x="70" y="213">open · 162</text>
  <rect class="rail" x="300" y="186" width="560" height="40" rx="12"/>
  <rect class="fill" x="300" y="186" width="174.1" height="40" rx="12" fill="#00a6b2"/>
  <text class="value" x="888.0" y="213">22.7%</text>
  <text class="gloss" x="986.0" y="213">usable today</text>
</g>

<g>
  <text class="rowlabel" x="70" y="277">watch · 521</text>
  <rect class="rail" x="300" y="250" width="560" height="40" rx="12"/>
  <rect class="fill" x="300" y="250" width="560" height="40" rx="12" fill="#9aa7af"/>
  <text class="value" x="888.0" y="277">73.1%</text>
  <text class="gloss" x="986.0" y="277">verify before use</text>
</g>

<g>
  <text class="rowlabel" x="70" y="341">partial · 12</text>
  <rect class="rail" x="300" y="314" width="560" height="40" rx="12"/>
  <rect class="fill" x="300" y="314" width="12.9" height="40" rx="12" fill="#ef9f24"/>
  <text class="value" x="888.0" y="341">1.7%</text>
  <text class="gloss" x="986.0" y="341">subset / annotations only</text>
</g>

<g>
  <text class="rowlabel" x="70" y="405">benchmark · 11</text>
  <rect class="rail" x="300" y="378" width="560" height="40" rx="12"/>
  <rect class="fill" x="300" y="378" width="11.8" height="40" rx="12" fill="#5b6b73"/>
  <text class="value" x="888.0" y="405">1.5%</text>
  <text class="gloss" x="986.0" y="405">eval over existing video</text>
</g>

<g>
  <text class="rowlabel" x="70" y="469">request · 7</text>
  <rect class="rail" x="300" y="442" width="560" height="40" rx="12"/>
  <rect class="fill" x="300" y="442" width="8" height="40" rx="12" fill="#d98f1f"/>
  <text class="value" x="888.0" y="469">1.0%</text>
  <text class="gloss" x="986.0" y="469">license / approval needed</text>
</g>

</svg>
