<svg xmlns="http://www.w3.org/2000/svg" viewBox="0 0 1280 730" role="img" aria-labelledby="title desc">
  <title id="title">Awesome Egocentric Atlas catalog overview</title>
  <desc id="desc">Awesome Egocentric Atlas pipeline: egocentric capture sources feed multimodal signals, which feed research task families, which produce reusable, validated atlas artifacts, with a curate-verify-update feedback loop.</desc>
  <defs>
    <linearGradient id="bg" x1="0" x2="1" y1="0" y2="1">
      <stop offset="0" stop-color="#fbfdff"/>
      <stop offset="0.62" stop-color="#f4faf9"/>
      <stop offset="1" stop-color="#eef7f6"/>
    </linearGradient>
    <pattern id="dots" width="32" height="32" patternUnits="userSpaceOnUse">
      <circle cx="2" cy="2" r="1.5" fill="#cfe0e4" opacity="0.42"/>
    </pattern>
    <filter id="shadow" x="-13%" y="-14%" width="126%" height="138%">
      <feDropShadow dx="0" dy="8" stdDeviation="9" flood-color="#0f2a33" flood-opacity="0.10"/>
    </filter>
    <marker id="loopArrow" viewBox="0 0 10 10" refX="8.2" refY="5" markerWidth="6" markerHeight="6" orient="auto-start-reverse">
      <path d="M0 0 L10 5 L0 10 z" fill="#0aa6b2"/>
    </marker>
    <style>
      .ink { fill: #14212b; }
      .sub { fill: #586672; }
      .title { font: 700 43px system-ui, -apple-system, "Segoe UI", sans-serif; }
      .subtitle { font: 500 19px system-ui, -apple-system, "Segoe UI", sans-serif; }
      .kicker { font: 700 14px system-ui, -apple-system, "Segoe UI", sans-serif; fill: #0b8f98; letter-spacing: .16em; }
      .panel { fill: #ffffff; stroke: #d7e4e9; stroke-width: 1.5; filter: url(#shadow); }
      .ph { font: 700 20px system-ui, -apple-system, "Segoe UI", sans-serif; fill: #0f3b45; }
      .row { font: 650 18px system-ui, -apple-system, "Segoe UI", sans-serif; fill: #2b3a44; }
      .rowsub { font: 500 14px system-ui, -apple-system, "Segoe UI", sans-serif; fill: #697782; }
      .divider { stroke: #e6eef1; stroke-width: 1.3; }
      .chip { fill: #ffffff; stroke: #d8e4e9; stroke-width: 1.3; }
      .chiptext { font: 650 16.2px system-ui, -apple-system, "Segoe UI", sans-serif; fill: #3a4a54; }
      .flowBadge { fill: #eef6f8; stroke: #c7dce3; stroke-width: 1.3; }
      .flowGlyph { fill: #78909a; }
      .loop { stroke: #0aa6b2; stroke-width: 2.4; fill: none; stroke-dasharray: 2 8; stroke-linecap: round; }
      .dotT { fill: #00a6b2; }
      .dotA { fill: #ef9f24; }
      .dotN { fill: #7c8b94; }
      .loopText { font: 700 14px system-ui, -apple-system, "Segoe UI", sans-serif; fill: #0b8f98; letter-spacing: .12em; }
    </style>
  </defs>

  <rect width="1280" height="730" fill="url(#bg)"/>
  <rect width="1280" height="730" fill="url(#dots)"/>

  <text class="kicker" x="56" y="52">CATALOG OVERVIEW</text>
  <text class="title ink" x="56" y="104">Awesome Egocentric Atlas</text>
  <text class="subtitle sub" x="56" y="136">
    <tspan x="56" y="136">Datasets, benchmarks, models, and tools for egocentric vision, embodied AI,</tspan>
    <tspan x="56" y="161">robotics, VLA, world models, WMA, memory, AR/VR, and hand-object interaction.</tspan>
  </text>

  <!-- stat chips -->
  <g>
    <rect class="chip" x="754" y="58" width="202" height="36" rx="18"/>
    <circle class="dotT" cx="780" cy="76" r="5"/>
    <text class="chiptext" x="798" y="81">793 resources</text>
    <rect class="chip" x="978" y="58" width="118" height="36" rx="18"/>
    <circle class="dotA" cx="1004" cy="76" r="5"/>
    <text class="chiptext" x="1022" y="81">6 areas</text>
    <rect class="chip" x="1118" y="58" width="132" height="36" rx="18"/>
    <circle class="dotN" cx="1144" cy="76" r="5"/>
    <text class="chiptext" x="1162" y="81">5 states</text>
  </g>

  <!-- flow badges -->
  <g transform="translate(335 375)">
    <circle class="flowBadge" cx="0" cy="0" r="16"/>
    <path class="flowGlyph" d="M-5 -7 L7 0 L-5 7 z"/>
  </g>
  <g transform="translate(640 375)">
    <circle class="flowBadge" cx="0" cy="0" r="16"/>
    <path class="flowGlyph" d="M-5 -7 L7 0 L-5 7 z"/>
  </g>
  <g transform="translate(945 375)">
    <circle class="flowBadge" cx="0" cy="0" r="16"/>
    <path class="flowGlyph" d="M-5 -7 L7 0 L-5 7 z"/>
  </g>

  <!-- Panel 1: Capture Sources -->
  <g transform="translate(56 235)">
    <rect class="panel" width="250" height="320" rx="18"/>
    <circle cx="42" cy="48" r="23" fill="#e9f7f7" stroke="#8fd2d4" stroke-width="1.6"/>
    <g stroke="#0b8f98" stroke-width="2.2" fill="none" stroke-linecap="round">
      <circle cx="35.5" cy="48" r="5.6"/>
      <circle cx="48.5" cy="48" r="5.6"/>
      <path d="M41.2 48 q1.2 -2 2.4 0"/>
      <path d="M29.8 46.8 l-2.4 1.7 M54.2 46.8 l2.4 1.7"/>
    </g>
    <text class="ph" x="77" y="56">Capture Sources</text>
    <line class="divider" x1="26" y1="86" x2="224" y2="86"/>
    <circle class="dotT" cx="36" cy="130" r="5"/>
    <text class="row" x="56" y="130">AR glasses</text>
    <text class="rowsub" x="56" y="152">Aria, HoloLens, Quest</text>
    <circle class="dotT" cx="36" cy="198" r="5"/>
    <text class="row" x="56" y="198">Wearable cameras</text>
    <text class="rowsub" x="56" y="220">head, chest, wrist</text>
    <text class="rowsub" x="56" y="239">animal view</text>
    <circle class="dotT" cx="36" cy="274" r="5"/>
    <text class="row" x="56" y="274">Ego-exo rigs</text>
    <text class="rowsub" x="56" y="296">synchronized multiview</text>
  </g>

  <!-- Panel 2: Signals -->
  <g transform="translate(361 235)">
    <rect class="panel" width="250" height="320" rx="18"/>
    <circle cx="42" cy="48" r="23" fill="#eef3f5" stroke="#bcccd3" stroke-width="1.6"/>
    <g stroke="#5b6b73" stroke-width="2.5" stroke-linecap="round">
      <line x1="33" y1="53.5" x2="33" y2="42.5"/>
      <line x1="38" y1="57" x2="38" y2="39"/>
      <line x1="43" y1="54.5" x2="43" y2="41.5"/>
      <line x1="48" y1="58.5" x2="48" y2="37.5"/>
    </g>
    <text class="ph" x="77" y="56">Signals</text>
    <line class="divider" x1="26" y1="86" x2="224" y2="86"/>
    <circle class="dotN" cx="36" cy="130" r="5"/>
    <text class="row" x="56" y="130">Vision</text>
    <text class="rowsub" x="56" y="152">RGB, RGB-D, stereo</text>
    <circle class="dotN" cx="36" cy="198" r="5"/>
    <text class="row" x="56" y="198">Motion &amp; attention</text>
    <text class="rowsub" x="56" y="220">audio, IMU, gaze</text>
    <circle class="dotN" cx="36" cy="274" r="5"/>
    <text class="row" x="56" y="274">Geometry</text>
    <text class="rowsub" x="56" y="296">hands, pose, 3D maps</text>
  </g>

  <!-- Panel 3: Research Tasks -->
  <g transform="translate(666 235)">
    <rect class="panel" width="250" height="320" rx="18"/>
    <circle cx="42" cy="48" r="23" fill="#fff4dc" stroke="#f0c66f" stroke-width="1.6"/>
    <g stroke="#ef9f24" stroke-width="2.3" fill="none">
      <circle cx="42" cy="48" r="8.7"/>
      <circle cx="42" cy="48" r="3.3" fill="#ef9f24"/>
    </g>
    <text class="ph" x="77" y="56">Research Tasks</text>
    <line class="divider" x1="26" y1="86" x2="224" y2="86"/>
    <circle class="dotA" cx="36" cy="130" r="5"/>
    <text class="row" x="56" y="130">Perception</text>
    <text class="rowsub" x="56" y="152">action, HOI, tracking</text>
    <circle class="dotA" cx="36" cy="198" r="5"/>
    <text class="row" x="56" y="198">Reasoning</text>
    <text class="rowsub" x="56" y="220">memory, VQA, language</text>
    <circle class="dotA" cx="36" cy="260" r="5"/>
    <text class="row" x="56" y="260">Embodiment</text>
    <text class="rowsub" x="56" y="282">robotics, VLA</text>
    <text class="rowsub" x="56" y="301">assistance</text>
  </g>

  <!-- Panel 4: Atlas Outputs -->
  <g transform="translate(971 235)">
    <rect class="panel" width="250" height="320" rx="18"/>
    <circle cx="42" cy="48" r="23" fill="#eef3f5" stroke="#bcccd3" stroke-width="1.6"/>
    <g fill="#5b6b73">
      <rect x="32" y="41" width="20" height="4" rx="2"/>
      <rect x="32" y="47" width="20" height="4" rx="2"/>
      <rect x="32" y="53" width="20" height="4" rx="2"/>
    </g>
    <text class="ph" x="77" y="56">Atlas Outputs</text>
    <line class="divider" x1="26" y1="86" x2="224" y2="86"/>
    <circle class="dotN" cx="36" cy="130" r="5"/>
    <text class="row" x="56" y="130">README</text>
    <text class="rowsub" x="56" y="152">scannable tables</text>
    <text class="rowsub" x="56" y="171">direct links</text>
    <circle class="dotN" cx="36" cy="222" r="5"/>
    <text class="row" x="56" y="222">YAML catalog</text>
    <text class="rowsub" x="56" y="244">filterable structure</text>
    <circle class="dotN" cx="36" cy="285" r="5"/>
    <text class="row" x="56" y="285">CI-validated</text>
    <text class="rowsub" x="56" y="307">checked on change</text>
  </g>

  <!-- feedback loop -->
  <path class="loop" d="M1080 580 C1010 648 270 648 200 580" marker-end="url(#loopArrow)"/>
  <rect x="510" y="632" width="260" height="30" rx="15" fill="#ffffff" stroke="#cfe6e8" stroke-width="1.3"/>
  <text class="loopText" x="640" y="652" text-anchor="middle">CURATE · VERIFY · UPDATE</text>

  <text class="rowsub" x="56" y="704">From egocentric capture to multimodal signals, task families, and reusable, validated research artifacts.</text>
</svg>
