<svg xmlns="http://www.w3.org/2000/svg" viewBox="0 0 1280 560" role="img" aria-labelledby="title desc">
  <title id="title">Egocentric resources by era and type</title>
  <desc id="desc">A stacked bar chart of catalogued egocentric AI resources grouped into five eras and split by resource type (dataset, benchmark, model, toolkit, collection). The y-axis is generated from the latest catalog counts so bar tops, totals, and trend line stay aligned after every scan.</desc>
  <defs>
    <linearGradient id="bg" x1="0" x2="1" y1="0" y2="1">
      <stop offset="0" stop-color="#fbfdff"/>
      <stop offset="0.6" stop-color="#f4faf9"/>
      <stop offset="1" stop-color="#eef7f6"/>
    </linearGradient>
    <pattern id="dots" width="28" height="28" patternUnits="userSpaceOnUse">
      <circle cx="2" cy="2" r="1.4" fill="#cfe0e4" opacity="0.4"/>
    </pattern>
    <filter id="shadow" x="-14%" y="-14%" width="128%" height="140%">
      <feDropShadow dx="0" dy="6" stdDeviation="7" flood-color="#0f2a33" flood-opacity="0.12"/>
    </filter>
    <marker id="up" viewBox="0 0 10 10" refX="6.5" refY="5" markerWidth="7.5" markerHeight="7.5" orient="auto-start-reverse">
      <path d="M0 0 L10 5 L0 10 z" fill="#ef9f24"/>
    </marker>
    <clipPath id="c1"><rect x="142" y="456.9" width="96" height="23.1" rx="8"/></clipPath>
    <clipPath id="c2"><rect x="382" y="442.9" width="96" height="37.1" rx="8"/></clipPath>
    <clipPath id="c3"><rect x="622" y="406.5" width="96" height="73.5" rx="8"/></clipPath>
    <clipPath id="c4"><rect x="862" y="338.6" width="96" height="141.4" rx="8"/></clipPath>
    <clipPath id="c5"><rect x="1102" y="212.6" width="96" height="267.4" rx="8"/></clipPath>
    <style>
      .ink { fill: #14212b; }
      .kicker { font: 700 14px system-ui, -apple-system, "Segoe UI", sans-serif; fill: #0b8f98; letter-spacing: .16em; }
      .title { font: 700 34px system-ui, -apple-system, "Segoe UI", sans-serif; }
      .subtitle { font: 500 16px system-ui, -apple-system, "Segoe UI", sans-serif; fill: #53606b; }
      .count { font: 800 21px system-ui, -apple-system, "Segoe UI", sans-serif; fill: #0f3b45; }
      .era { font: 700 15px system-ui, -apple-system, "Segoe UI", sans-serif; fill: #2b3a44; }
      .anchor { font: 500 13px system-ui, -apple-system, "Segoe UI", sans-serif; fill: #6a7882; }
      .grid { stroke: #e2ecef; stroke-width: 1.2; }
      .gridlabel { font: 600 12px system-ui, -apple-system, "Segoe UI", sans-serif; fill: #9aa7af; }
      .axis { stroke: #c2d2d8; stroke-width: 2; }
      .trend { stroke: #0f3b45; stroke-width: 2.6; fill: none; stroke-linejoin: round; stroke-linecap: round; }
      .proj { stroke: #ef9f24; stroke-width: 3; fill: none; stroke-dasharray: 3 7; stroke-linecap: round; }
      .note { font: 700 12.5px system-ui, -apple-system, "Segoe UI", sans-serif; fill: #c4801a; }
      .seg { stroke: #ffffff; stroke-width: 1.4; }
      .lg { font: 600 14px system-ui, -apple-system, "Segoe UI", sans-serif; fill: #46525f; }
    </style>
  </defs>

  <rect width="1280" height="560" fill="url(#bg)"/>
  <rect width="1280" height="560" fill="url(#dots)"/>

  <text class="kicker" x="90" y="50">GROWTH BY TYPE</text>
  <text class="title ink" x="90" y="92">Egocentric resources by era</text>
  <text class="subtitle" x="90" y="120">Each era's bar is split by type. 2026 year to date already exceeds the 2024&#8211;2025 peak.</text>

  <g>
    <rect x="90" y="145" width="14" height="14" rx="3" fill="#0b8f98"/><text class="lg" x="111" y="157">datasets</text>
    <rect x="193" y="145" width="14" height="14" rx="3" fill="#5b6b73"/><text class="lg" x="214" y="157">benchmarks</text>
    <rect x="316" y="145" width="14" height="14" rx="3" fill="#ef9f24"/><text class="lg" x="337" y="157">models</text>
    <rect x="407" y="145" width="14" height="14" rx="3" fill="#7a6ff0"/><text class="lg" x="428" y="157">toolkits</text>
    <rect x="502" y="145" width="14" height="14" rx="3" fill="#b8c2c9"/><text class="lg" x="523" y="157">collection</text>
  </g>

  <!-- gridlines generated from live catalog max=382, axis_max=400, tick_step=100 -->
  <line class="grid" x1="110" y1="410" x2="1210" y2="410"/>
  <text class="gridlabel" x="100" y="414" text-anchor="end">100</text>
  <line class="grid" x1="110" y1="340" x2="1210" y2="340"/>
  <text class="gridlabel" x="100" y="344" text-anchor="end">200</text>
  <line class="grid" x1="110" y1="270" x2="1210" y2="270"/>
  <text class="gridlabel" x="100" y="274" text-anchor="end">300</text>
  <line class="grid" x1="110" y1="200" x2="1210" y2="200"/>
  <text class="gridlabel" x="100" y="204" text-anchor="end">400</text>
  <text class="gridlabel" x="100" y="484" text-anchor="end">0</text>
  <line class="axis" x1="110" y1="480" x2="1210" y2="480"/>

  <!-- stacked bars generated from live era/kind counts -->
  <g clip-path="url(#c1)" filter="url(#shadow)">
    <rect class="seg" x="142" y="463.9" width="96" height="16.1" fill="#0b8f98"/>
    <rect class="seg" x="142" y="463.2" width="96" height="0.7" fill="#5b6b73"/>
    <rect class="seg" x="142" y="456.9" width="96" height="6.3" fill="#ef9f24"/>
  </g>
  <g clip-path="url(#c2)" filter="url(#shadow)">
    <rect class="seg" x="382" y="470.2" width="96" height="9.8" fill="#0b8f98"/>
    <rect class="seg" x="382" y="467.4" width="96" height="2.8" fill="#5b6b73"/>
    <rect class="seg" x="382" y="445.7" width="96" height="21.7" fill="#ef9f24"/>
    <rect class="seg" x="382" y="443.6" width="96" height="2.1" fill="#7a6ff0"/>
  </g>
  <g clip-path="url(#c3)" filter="url(#shadow)">
    <rect class="seg" x="622" y="463.2" width="96" height="16.8" fill="#0b8f98"/>
    <rect class="seg" x="622" y="451.3" width="96" height="11.9" fill="#5b6b73"/>
    <rect class="seg" x="622" y="411.4" width="96" height="39.9" fill="#ef9f24"/>
    <rect class="seg" x="622" y="407.2" width="96" height="4.2" fill="#7a6ff0"/>
    <rect class="seg" x="622" y="406.5" width="96" height="0.7" fill="#b8c2c9"/>
  </g>
  <g clip-path="url(#c4)" filter="url(#shadow)">
    <rect class="seg" x="862" y="442.9" width="96" height="37.1" fill="#0b8f98"/>
    <rect class="seg" x="862" y="423.3" width="96" height="19.6" fill="#5b6b73"/>
    <rect class="seg" x="862" y="344.9" width="96" height="78.4" fill="#ef9f24"/>
    <rect class="seg" x="862" y="338.6" width="96" height="6.3" fill="#7a6ff0"/>
  </g>
  <g clip-path="url(#c5)" filter="url(#shadow)">
    <rect class="seg" x="1102" y="424" width="96" height="56" fill="#0b8f98"/>
    <rect class="seg" x="1102" y="367.3" width="96" height="56.7" fill="#5b6b73"/>
    <rect class="seg" x="1102" y="228" width="96" height="139.3" fill="#ef9f24"/>
    <rect class="seg" x="1102" y="213.3" width="96" height="14.7" fill="#7a6ff0"/>
  </g>

  <polyline class="trend" points="190,456.9 430,442.9 670,406.5 910,338.6 1150,212.6"/>
  <path class="proj" d="M1150 212.6 L1230 195.6" marker-end="url(#up)"/>
  <text class="note" x="1210" y="174.6" text-anchor="middle">YTD</text>
  <g>
    <circle cx="190" cy="456.9" r="5.5" fill="#ffffff" stroke="#0f3b45" stroke-width="2.4"/>
    <circle cx="430" cy="442.9" r="5.5" fill="#ffffff" stroke="#0f3b45" stroke-width="2.4"/>
    <circle cx="670" cy="406.5" r="5.5" fill="#ffffff" stroke="#0f3b45" stroke-width="2.4"/>
    <circle cx="910" cy="338.6" r="5.5" fill="#ffffff" stroke="#0f3b45" stroke-width="2.4"/>
    <circle cx="1150" cy="212.6" r="6" fill="#ef9f24" stroke="#ffffff" stroke-width="2.4"/>
  </g>

  <text class="count" x="190" y="444.9" text-anchor="middle">33</text>
  <text class="count" x="430" y="430.9" text-anchor="middle">53</text>
  <text class="count" x="670" y="394.5" text-anchor="middle">105</text>
  <text class="count" x="910" y="326.6" text-anchor="middle">202</text>
  <text class="count" x="1150" y="200.6" text-anchor="middle">382</text>

  <text class="era" x="190" y="510" text-anchor="middle">&#8804; 2018</text>
  <text class="anchor" x="190" y="531" text-anchor="middle">CMU-MMAC, GTEA</text>
  <text class="era" x="430" y="510" text-anchor="middle">2019&#8211;2021</text>
  <text class="anchor" x="430" y="531" text-anchor="middle">EPIC-100, Ego4D</text>
  <text class="era" x="670" y="510" text-anchor="middle">2022&#8211;2023</text>
  <text class="anchor" x="670" y="531" text-anchor="middle">Ego-Exo4D, HOI4D</text>
  <text class="era" x="910" y="510" text-anchor="middle">2024&#8211;2025</text>
  <text class="anchor" x="910" y="531" text-anchor="middle">EgoVideo, EgoDex</text>
  <text class="era" x="1150" y="510" text-anchor="middle">2026 YTD</text>
  <text class="anchor" x="1150" y="531" text-anchor="middle">year to date &#183; DreamDojo, EgoScale</text>
</svg>
