<svg xmlns="http://www.w3.org/2000/svg" viewBox="0 0 1280 560" role="img" aria-labelledby="title desc">
  <title id="title">Egocentric resources by era and type</title>
  <desc id="desc">A stacked bar chart of catalogued egocentric AI resources grouped into five eras and split by resource type (dataset, benchmark, model, toolkit, collection). Datasets dominated the early eras; benchmarks and models now make up a growing share, and 2026's first half (January to June) already exceeds the 2024 to 2025 peak. A trend line through the bar tops marks the totals.</desc>
  <defs>
    <linearGradient id="bg" x1="0" x2="1" y1="0" y2="1">
      <stop offset="0" stop-color="#fbfdff"/>
      <stop offset="0.6" stop-color="#f4faf9"/>
      <stop offset="1" stop-color="#eef7f6"/>
    </linearGradient>
    <pattern id="dots" width="28" height="28" patternUnits="userSpaceOnUse">
      <circle cx="2" cy="2" r="1.4" fill="#cfe0e4" opacity="0.4"/>
    </pattern>
    <filter id="shadow" x="-14%" y="-14%" width="128%" height="140%">
      <feDropShadow dx="0" dy="6" stdDeviation="7" flood-color="#0f2a33" flood-opacity="0.12"/>
    </filter>
    <marker id="up" viewBox="0 0 10 10" refX="6.5" refY="5" markerWidth="7.5" markerHeight="7.5" orient="auto-start-reverse">
      <path d="M0 0 L10 5 L0 10 z" fill="#ef9f24"/>
    </marker>
    <clipPath id="c1"><rect x="142" y="446" width="96" height="34" rx="8"/></clipPath>
    <clipPath id="c2"><rect x="382" y="426" width="96" height="54" rx="8"/></clipPath>
    <clipPath id="c3"><rect x="622" y="343" width="96" height="137" rx="8"/></clipPath>
    <clipPath id="c4"><rect x="862" y="261" width="96" height="219" rx="8"/></clipPath>
    <clipPath id="c5"><rect x="1102" y="206" width="96" height="274" rx="8"/></clipPath>
    <style>
      .ink { fill: #14212b; }
      .kicker { font: 700 14px system-ui, -apple-system, "Segoe UI", sans-serif; fill: #0b8f98; letter-spacing: .16em; }
      .title { font: 700 34px system-ui, -apple-system, "Segoe UI", sans-serif; }
      .subtitle { font: 500 16px system-ui, -apple-system, "Segoe UI", sans-serif; fill: #53606b; }
      .count { font: 800 21px system-ui, -apple-system, "Segoe UI", sans-serif; fill: #0f3b45; }
      .era { font: 700 15px system-ui, -apple-system, "Segoe UI", sans-serif; fill: #2b3a44; }
      .anchor { font: 500 13px system-ui, -apple-system, "Segoe UI", sans-serif; fill: #6a7882; }
      .grid { stroke: #e2ecef; stroke-width: 1.2; }
      .gridlabel { font: 600 12px system-ui, -apple-system, "Segoe UI", sans-serif; fill: #9aa7af; }
      .axis { stroke: #c2d2d8; stroke-width: 2; }
      .trend { stroke: #0f3b45; stroke-width: 2.6; fill: none; stroke-linejoin: round; stroke-linecap: round; }
      .proj { stroke: #ef9f24; stroke-width: 3; fill: none; stroke-dasharray: 3 7; stroke-linecap: round; }
      .note { font: 700 12.5px system-ui, -apple-system, "Segoe UI", sans-serif; fill: #c4801a; }
      .seg { stroke: #ffffff; stroke-width: 1.4; }
      .lg { font: 600 14px system-ui, -apple-system, "Segoe UI", sans-serif; fill: #46525f; }
    </style>
  </defs>

  <rect width="1280" height="560" fill="url(#bg)"/>
  <rect width="1280" height="560" fill="url(#dots)"/>

  <text class="kicker" x="90" y="50">GROWTH BY TYPE</text>
  <text class="title ink" x="90" y="92">Egocentric resources by era</text>
  <text class="subtitle" x="90" y="120">Each era's bar is split by type. 2026 (first half only) already exceeds the 2024&#8211;2025 peak.</text>

  <!-- legend -->
  <g>
    <rect x="90" y="145" width="14" height="14" rx="3" fill="#0b8f98"/><text class="lg" x="111" y="157">datasets</text>
    <rect x="193" y="145" width="14" height="14" rx="3" fill="#5b6b73"/><text class="lg" x="214" y="157">benchmarks</text>
    <rect x="316" y="145" width="14" height="14" rx="3" fill="#ef9f24"/><text class="lg" x="337" y="157">models</text>
    <rect x="407" y="145" width="14" height="14" rx="3" fill="#7a6ff0"/><text class="lg" x="428" y="157">toolkits</text>
    <rect x="502" y="145" width="14" height="14" rx="3" fill="#b8c2c9"/><text class="lg" x="523" y="157">collection</text>
  </g>

  <!-- gridlines (scale: y = 480 - count*2.85) -->
  <line class="grid" x1="110" y1="423" x2="1210" y2="423"/>
  <line class="grid" x1="110" y1="366" x2="1210" y2="366"/>
  <line class="grid" x1="110" y1="309" x2="1210" y2="309"/>
  <line class="grid" x1="110" y1="252" x2="1210" y2="252"/>
  <text class="gridlabel" x="100" y="484" text-anchor="end">0</text>
  <text class="gridlabel" x="100" y="427" text-anchor="end">20</text>
  <text class="gridlabel" x="100" y="370" text-anchor="end">40</text>
  <text class="gridlabel" x="100" y="313" text-anchor="end">60</text>
  <text class="gridlabel" x="100" y="256" text-anchor="end">80</text>
  <line class="axis" x1="110" y1="480" x2="1210" y2="480"/>

  <!-- stacked bars (bottom-up: dataset, benchmark, model, toolkit, collection) -->
  <g clip-path="url(#c1)" filter="url(#shadow)">
    <rect class="seg" x="142" y="449" width="96" height="31" fill="#0b8f98"/>
    <rect class="seg" x="142" y="446" width="96" height="3" fill="#5b6b73"/>
  </g>
  <g clip-path="url(#c2)" filter="url(#shadow)">
    <rect class="seg" x="382" y="443" width="96" height="37" fill="#0b8f98"/>
    <rect class="seg" x="382" y="434" width="96" height="9" fill="#5b6b73"/>
    <rect class="seg" x="382" y="431" width="96" height="3" fill="#ef9f24"/>
    <rect class="seg" x="382" y="426" width="96" height="5" fill="#7a6ff0"/>
  </g>
  <g clip-path="url(#c3)" filter="url(#shadow)">
    <rect class="seg" x="622" y="426" width="96" height="54" fill="#0b8f98"/>
    <rect class="seg" x="622" y="395" width="96" height="31" fill="#5b6b73"/>
    <rect class="seg" x="622" y="361" width="96" height="34" fill="#ef9f24"/>
    <rect class="seg" x="622" y="346" width="96" height="15" fill="#7a6ff0"/>
    <rect class="seg" x="622" y="343" width="96" height="3" fill="#b8c2c9"/>
  </g>
  <g clip-path="url(#c4)" filter="url(#shadow)">
    <rect class="seg" x="862" y="389" width="96" height="91" fill="#0b8f98"/>
    <rect class="seg" x="862" y="340" width="96" height="49" fill="#5b6b73"/>
    <rect class="seg" x="862" y="269" width="96" height="71" fill="#ef9f24"/>
    <rect class="seg" x="862" y="261" width="96" height="8" fill="#7a6ff0"/>
  </g>
  <g clip-path="url(#c5)" filter="url(#shadow)">
    <rect class="seg" x="1102" y="414" width="96" height="66" fill="#0b8f98"/>
    <rect class="seg" x="1102" y="315" width="96" height="99" fill="#5b6b73"/>
    <rect class="seg" x="1102" y="215" width="96" height="100" fill="#ef9f24"/>
    <rect class="seg" x="1102" y="206" width="96" height="9" fill="#7a6ff0"/>
  </g>

  <!-- trend line through bar tops (totals) + dashed continuation -->
  <polyline class="trend" points="190,446 430,426 670,343 910,261 1150,206"/>
  <path class="proj" d="M1150 206 L1230 186" marker-end="url(#up)"/>
  <text class="note" x="1208" y="174" text-anchor="end">still H1</text>
  <g>
    <circle cx="190" cy="446" r="5.5" fill="#ffffff" stroke="#0f3b45" stroke-width="2.4"/>
    <circle cx="430" cy="426" r="5.5" fill="#ffffff" stroke="#0f3b45" stroke-width="2.4"/>
    <circle cx="670" cy="343" r="5.5" fill="#ffffff" stroke="#0f3b45" stroke-width="2.4"/>
    <circle cx="910" cy="261" r="5.5" fill="#ffffff" stroke="#0f3b45" stroke-width="2.4"/>
    <circle cx="1150" cy="206" r="6" fill="#ef9f24" stroke="#ffffff" stroke-width="2.4"/>
  </g>

  <!-- totals -->
  <text class="count" x="190" y="434" text-anchor="middle">12</text>
  <text class="count" x="430" y="414" text-anchor="middle">19</text>
  <text class="count" x="670" y="331" text-anchor="middle">48</text>
  <text class="count" x="910" y="249" text-anchor="middle">77</text>
  <text class="count" x="1150" y="194" text-anchor="middle">96</text>

  <!-- era + anchor labels -->
  <text class="era" x="190" y="510" text-anchor="middle">&#8804; 2018</text>
  <text class="anchor" x="190" y="531" text-anchor="middle">GTEA, EgoHands</text>
  <text class="era" x="430" y="510" text-anchor="middle">2019&#8211;2021</text>
  <text class="anchor" x="430" y="531" text-anchor="middle">EPIC-100, Ego4D</text>
  <text class="era" x="670" y="510" text-anchor="middle">2022&#8211;2023</text>
  <text class="anchor" x="670" y="531" text-anchor="middle">Ego-Exo4D, HOI4D</text>
  <text class="era" x="910" y="510" text-anchor="middle">2024&#8211;2025</text>
  <text class="anchor" x="910" y="531" text-anchor="middle">EgoVideo, EgoDex</text>
  <text class="era" x="1150" y="510" text-anchor="middle">2026 (H1)</text>
  <text class="anchor" x="1150" y="531" text-anchor="middle">first half only &#183; ACE-Ego-0, EgoScale</text>
</svg>
