<svg xmlns="http://www.w3.org/2000/svg" viewBox="0 0 1200 520" role="img" aria-labelledby="title desc">
  <title id="title">EgoScape Atlas system map</title>
  <desc id="desc">EgoScape Atlas: curated egocentric AI datasets, benchmarks, models, and tools.</desc>
  <defs>
    <linearGradient id="panel" x1="0" x2="1" y1="0" y2="1">
      <stop offset="0" stop-color="#f8fbff"/>
      <stop offset="1" stop-color="#eef7f6"/>
    </linearGradient>
    <filter id="shadow" x="-10%" y="-10%" width="120%" height="130%">
      <feDropShadow dx="0" dy="8" stdDeviation="8" flood-color="#1f2937" flood-opacity="0.12"/>
    </filter>
    <style>
      .bg { fill: #ffffff; }
      .panel { fill: url(#panel); stroke: #d6e3e8; stroke-width: 1.4; filter: url(#shadow); }
      .title { font: 700 28px system-ui, -apple-system, BlinkMacSystemFont, "Segoe UI", sans-serif; fill: #17202a; }
      .subtitle { font: 500 15px system-ui, -apple-system, BlinkMacSystemFont, "Segoe UI", sans-serif; fill: #54606b; }
      .h { font: 700 17px system-ui, -apple-system, BlinkMacSystemFont, "Segoe UI", sans-serif; fill: #0f3b45; }
      .t { font: 500 13px system-ui, -apple-system, BlinkMacSystemFont, "Segoe UI", sans-serif; fill: #344054; }
      .small { font: 500 12px system-ui, -apple-system, BlinkMacSystemFont, "Segoe UI", sans-serif; fill: #667085; }
      .line { stroke: #9fb5bd; stroke-width: 2; fill: none; }
      .accent { stroke: #0097a7; stroke-width: 3; fill: none; }
      .node { fill: #ffffff; stroke: #b8ccd3; stroke-width: 1.5; }
      .node2 { fill: #fff7e8; stroke: #e0a538; stroke-width: 1.5; }
      .dot { fill: #00a6b2; }
      .dot2 { fill: #f5a623; }
    </style>
  </defs>
  <rect class="bg" width="1200" height="520"/>
  <text class="title" x="60" y="62">EgoScape Atlas</text>
  <text class="subtitle" x="60" y="88">Curated egocentric AI datasets, benchmarks, models, and tools</text>

  <rect class="panel" x="58" y="130" width="240" height="260" rx="16"/>
  <text class="h" x="86" y="168">Capture Sources</text>
  <circle class="node" cx="110" cy="214" r="22"/>
  <text class="t" x="146" y="208">AR glasses</text>
  <text class="small" x="146" y="226">Aria, HoloLens, Quest</text>
  <circle class="node" cx="110" cy="270" r="22"/>
  <text class="t" x="146" y="264">Wearable cameras</text>
  <text class="small" x="146" y="282">head, chest, wrist, animal</text>
  <circle class="node" cx="110" cy="326" r="22"/>
  <text class="t" x="146" y="320">Ego-exo rigs</text>
  <text class="small" x="146" y="338">synchronized multiview</text>

  <rect class="panel" x="355" y="105" width="230" height="310" rx="16"/>
  <text class="h" x="386" y="144">Signals</text>
  <rect class="node" x="392" y="172" width="156" height="34" rx="10"/>
  <text class="t" x="415" y="194">RGB / RGB-D / stereo</text>
  <rect class="node" x="392" y="222" width="156" height="34" rx="10"/>
  <text class="t" x="421" y="244">audio / IMU / gaze</text>
  <rect class="node" x="392" y="272" width="156" height="34" rx="10"/>
  <text class="t" x="420" y="294">hands and objects</text>
  <rect class="node" x="392" y="322" width="156" height="34" rx="10"/>
  <text class="t" x="420" y="344">poses and 3D maps</text>

  <rect class="panel" x="642" y="80" width="270" height="360" rx="16"/>
  <text class="h" x="675" y="119">Research Tasks</text>
  <circle class="node2" cx="690" cy="166" r="19"/>
  <text class="t" x="724" y="171">action and procedure</text>
  <circle class="node2" cx="690" cy="218" r="19"/>
  <text class="t" x="724" y="223">hand-object and 3D HOI</text>
  <circle class="node2" cx="690" cy="270" r="19"/>
  <text class="t" x="724" y="275">video-language and memory</text>
  <circle class="node2" cx="690" cy="322" r="19"/>
  <text class="t" x="724" y="327">robotics and VLA</text>
  <circle class="node2" cx="690" cy="374" r="19"/>
  <text class="t" x="724" y="379">social, audio, assistance</text>

  <rect class="panel" x="980" y="130" width="160" height="260" rx="16"/>
  <text class="h" x="1012" y="168">Atlas Outputs</text>
  <rect class="node" x="1012" y="196" width="96" height="34" rx="10"/>
  <text class="t" x="1029" y="218">README</text>
  <rect class="node" x="1012" y="246" width="96" height="34" rx="10"/>
  <text class="t" x="1034" y="268">YAML</text>
  <rect class="node" x="1012" y="296" width="96" height="34" rx="10"/>
  <text class="t" x="1026" y="318">Figures</text>
  <rect class="node" x="1012" y="346" width="96" height="34" rx="10"/>
  <text class="t" x="1023" y="368">Updates</text>

  <path class="line" d="M298 258 C326 258 326 258 355 258"/>
  <path class="line" d="M585 258 C615 258 615 258 642 258"/>
  <path class="line" d="M912 258 C945 258 945 258 980 258"/>
  <path class="accent" d="M178 420 C322 492 754 492 1060 420"/>
  <circle class="dot" cx="298" cy="258" r="6"/>
  <circle class="dot" cx="585" cy="258" r="6"/>
  <circle class="dot2" cx="912" cy="258" r="6"/>
  <circle class="dot" cx="1060" cy="420" r="6"/>
  <text class="small" x="390" y="472">From first-person capture to multimodal signals, task families, and reusable research artifacts.</text>
</svg>
